<svg xmlns="http://www.w3.org/2000/svg" width="256" height="256" viewBox="0 0 100 100">
  <rect width="100" height="100" rx="20" fill="#faba6f"></rect>
  <path d="M30.88 64.90L30.88 64.90L30.88 62.56Q30.88 61.03 32.41 61.03L32.41 61.03L38.17 61.03Q39.70 61.03 39.70 62.56L39.70 62.56L39.70 64.17Q39.70 67.95 41.36 69.62Q43.03 71.28 46.90 71.28L46.90 71.28L53.11 71.28Q56.98 71.28 58.69 69.53Q60.40 67.78 60.40 63.82L60.40 63.82L60.40 61.75Q60.40 58.87 58.19 57.20Q55.98 55.54 52.75 55.04Q49.51 54.55 45.64 53.65Q41.77 52.75 38.53 51.58Q35.29 50.41 33.08 47.17Q30.88 43.93 30.88 38.89L30.88 38.89L30.88 35.11Q30.88 28.54 34.61 24.80Q38.35 21.07 44.92 21.07L44.92 21.07L54.46 21.07Q61.12 21.07 64.85 24.80Q68.59 28.54 68.59 35.11L68.59 35.11L68.59 37.09Q68.59 38.62 67.06 38.62L67.06 38.62L61.30 38.62Q59.77 38.62 59.77 37.09L59.77 37.09L59.77 35.92Q59.77 32.05 58.10 30.38Q56.44 28.72 52.57 28.72L52.57 28.72L46.90 28.72Q43.03 28.72 41.36 30.47Q39.70 32.23 39.70 36.46L39.70 36.46L39.70 39.25Q39.70 43.30 45.55 44.74L45.55 44.74Q48.16 45.37 51.26 45.82Q54.37 46.27 57.52 47.17Q60.67 48.07 63.28 49.55Q65.89 51.04 67.50 54.05Q69.13 57.07 69.13 61.39L69.13 61.39L69.13 64.90Q69.13 71.47 65.39 75.20Q61.66 78.94 55.09 78.94L55.09 78.94L45.01 78.94Q38.44 78.94 34.66 75.20Q30.88 71.47 30.88 64.90Z" fill="#fff"></path>
</svg>
